<?xml version="1.0" standalone="no"?><!DOCTYPE svg PUBLIC "-//W3C//DTD SVG 1.1//EN" "http://www.w3.org/Graphics/SVG/1.1/DTD/svg11.dtd"><svg t="1736404833585" class="icon" viewBox="0 0 1024 1024" version="1.1" xmlns="http://www.w3.org/2000/svg" p-id="18600" xmlns:xlink="http://www.w3.org/1999/xlink" width="48" height="48"><path d="M524.85632 42.76224c-259.97824 0-470.70208 210.68288-470.70208 470.69696 0 259.95264 210.71872 470.71232 470.70208 470.71232 259.94752 0 470.7072-210.75456 470.7072-470.71232-0.01024-260.00896-210.7648-470.69696-470.7072-470.69696m293.30432 355.12832l-329.38496 317.63968c-4.2496 4.2496-9.18016 7.76192-14.592 10.37824-20.6848 14.70976-49.64352 12.87168-68.18816-5.66784l-141.45536-141.50144c-20.69504-20.6848-20.69504-54.21056 0-74.8544a52.79744 52.79744 0 0 1 74.88 0l106.1888 106.14784 297.67168-286.99136c20.64384-20.72064 54.20544-20.72064 74.88512 0 20.67968 20.64896 20.67968 54.20544-0.00512 74.84928" fill="#2577E3" p-id="18601"></path></svg>