<?xml version="1.0" standalone="no"?><!DOCTYPE svg PUBLIC "-//W3C//DTD SVG 1.1//EN" "http://www.w3.org/Graphics/SVG/1.1/DTD/svg11.dtd"><svg t="1736401719902" class="icon" viewBox="0 0 1024 1024" version="1.1" xmlns="http://www.w3.org/2000/svg" p-id="7187" xmlns:xlink="http://www.w3.org/1999/xlink" width="48" height="48"><path d="M597.333333 576s188.885333-129.152 192.96-128.874667A280.021333 280.021333 0 0 0 285.141333 362.666667h2.858667z" fill="#0364B8" p-id="7188"></path><path d="M405.674667 396.032A222.869333 222.869333 0 0 0 288 362.666667h-2.858667a224 224 0 0 0-180.885333 352L405.333333 682.666667l188.437334-173.973334z" fill="#0F78D4" p-id="7189"></path><path d="M790.293333 447.125333a180.373333 180.373333 0 0 0-12.288-0.448 181.461333 181.461333 0 0 0-72.149333 14.933334l-112.085333 47.146666L725.333333 661.333333l212.906667 53.696a182.016 182.016 0 0 0-147.946667-267.904z" fill="#1490DF" p-id="7190"></path><path d="M779.285333 619.818667l-46.464-27.733334-106.538666-63.808-32.512-19.477333-85.738667 36.096-164.266667 69.077333-73.642666 30.933334-165.866667 69.76A223.658667 223.658667 0 0 0 288 810.666667h490.005333a181.994667 181.994667 0 0 0 160.234667-95.637334z" fill="#28A8EA" p-id="7191"></path></svg>