<?xml version="1.0" standalone="no"?><!DOCTYPE svg PUBLIC "-//W3C//DTD SVG 1.1//EN" "http://www.w3.org/Graphics/SVG/1.1/DTD/svg11.dtd"><svg t="1736412467384" class="icon" viewBox="0 0 1024 1024" version="1.1" xmlns="http://www.w3.org/2000/svg" p-id="28456" xmlns:xlink="http://www.w3.org/1999/xlink" width="48" height="48"><path d="M20.622364 368.071111c-1.28 4.408889-2.56 8.817778-3.697777 13.226667l26.453333-13.226667zM1022.151253 470.755556l-6.115555-6.4L995.555698 485.546667l3.982222-28.444445-28.444444-2.56 25.173333-14.222222-16.355556-25.457778 27.306667 10.382222 5.831111-18.631111a512 512 0 0 0-864.995555-254.577777h399.786666v36.266666l-143.502222 71.111111h143.644444v107.946667h-143.644444l143.502222 71.822222v36.124445h-72.533333l-197.688889-98.844445v98.844445H170.666809v-97.991111L2.560142 460.942222A505.031111 505.031111 0 0 0 0.000142 512a512 512 0 0 0 1024 0c0-14.222222 0-27.591111-1.848889-41.244444z m-141.226666-177.92l27.164444-10.24-15.928889 24.177777 24.888889 14.933334-29.155555 2.56 4.266666 28.444444-20.337778-20.622222-19.911111 21.048889 3.982223-28.444445-28.444445-2.56 25.031111-14.933333-16.071111-24.177778 27.306667 10.24 8.675555-27.733333zM730.026809 528.64l-20.053333-21.191111-20.195556 21.191111 4.124444-28.444444-28.444444-2.417778 25.031111-14.222222-16.071111-24.32 27.306667 10.24 8.248889-28.586667 8.817777 27.733333 27.306667-10.24-16.071111 24.32 25.031111 14.222222-28.444444 2.417778zM129.13792 711.111111l52.622222-31.146667-33.991111-51.057777 56.888889 21.76 18.488889-58.453334 18.915555 58.453334 56.888889-21.76-33.706666 51.057777L318.57792 711.111111l-60.871111 5.404445 8.391111 60.586666-42.666667-44.373333-42.666666 44.373333 8.391111-60.586666z m763.022222 74.097778l-20.337778-21.191111-19.911111 21.191111 3.982223-28.444445-28.444445-2.56 25.031111-14.222222-16.071111-24.32 27.306667 10.24 8.106666-29.013333 9.102223 28.444444 27.164444-10.24L892.160142 739.555556l24.888889 14.222222-29.155555 2.56zM952.889031 576.284444l-15.928889-9.813333-15.644444 9.813333 4.266666-18.062222-14.222222-12.088889 18.631111-1.422222 6.968889-17.208889 7.111111 17.208889 18.631111 1.422222-14.222222 12.088889z" fill="#150088" p-id="28457"></path><path d="M475.449031 152.035556h-197.688889v98.844444l197.688889-98.844444zM170.666809 152.035556h-22.613333A504.746667 504.746667 0 0 0 95.85792 213.333333L170.666809 250.88z" fill="#150088" p-id="28458"></path><path d="M266.09792 679.822222l33.848889-50.915555-57.315556 21.76-18.915555-58.453334-18.488889 58.453334-57.457778-21.76 33.991111 50.915555L128.995698 711.111111l61.155555 5.404445-8.391111 60.586666 41.955556-44.373333 42.382222 44.373333-8.391111-60.586666 61.013333-5.404445-52.622222-31.288889zM871.822364 764.017778l20.337778 21.191111-4.266666-28.871111 29.155555-2.56-24.888889-14.791111 15.928889-24.32-27.164444 10.24-9.102223-27.733334-8.675555 27.733334-27.306667-10.24 16.071111 24.32L826.880142 753.777778l29.013334 2.56-3.982223 28.871111 19.911111-21.191111zM730.026809 482.417778l16.071111-24.32-27.306667 10.382222-8.817777-27.875556-8.96 27.875556-27.306667-10.382222 16.071111 24.32-25.031111 14.933333 29.013333 2.417778-3.982222 28.871111 20.195556-21.191111 20.053333 21.191111-3.982222-28.871111 29.013333-2.417778-25.031111-14.933333zM855.893476 324.266667l-3.982223 28.871111 19.911111-21.048889 20.337778 21.048889-4.266666-28.871111 29.155555-2.417778-24.888889-15.075556 15.928889-24.177777-27.164444 10.24-9.102223-27.733334-8.675555 27.733334-27.306667-10.24 16.071111 24.177777-25.031111 15.075556 29.013334 2.417778zM979.911253 414.862222l15.644445 24.32-25.173334 14.222222 28.444445 2.56-3.982222 28.444445 20.053333-21.191111 6.115556 6.4a501.048889 501.048889 0 0 0-9.102223-64.142222l-5.831111 18.631111zM925.29792 558.08l-4.266667 18.204444 15.644445-9.813333 15.928889 9.813333-4.408889-18.204444 14.222222-11.946667-18.631111-1.422222-7.111111-17.208889-6.968889 17.208889-18.631111 1.422222 14.222222 11.946667zM61.29792 268.942222l-6.542222 12.657778h31.857778zM86.613476 346.453333H27.449031c-2.417778 7.111111-4.693333 14.222222-6.826667 21.617778h22.755556zM169.955698 250.88l21.475555 10.666667v-109.511111h-21.475555v98.844444zM256.284587 476.16h21.475555v-98.986667l-21.475555-10.666666v109.653333zM169.955698 377.315556v98.844444h21.475555v-109.653333l-21.475555 10.808889zM547.840142 281.6v64.853333H361.102364l43.235556 21.617778h143.644444v-107.946667h-143.644444l-43.235556 21.475556h186.737778zM277.760142 152.035556h-21.475555v109.653333l21.475555-10.808889v-98.844444z" fill="#FFFFFF" p-id="28459"></path><path d="M191.431253 281.6v-20.053333L170.666809 250.88 95.85792 213.333333c-6.257778 8.817778-12.373333 17.777778-18.204444 27.022223l38.257777 19.2H66.560142l-5.262222 9.244444 25.315556 12.657778zM256.284587 346.453333v20.053334l21.475555 10.666666 197.688889 98.986667h72.391111v-0.142222l-215.893333-107.946667h48.355555l167.537778 83.768889v-11.946667l-143.502222-71.822222-43.235556-21.617778h-104.817777zM191.431253 366.506667v-20.053334H86.613476l-42.666667 21.617778-26.453333 13.226667c-3.555556 13.368889-6.4 27.022222-8.817778 40.675555l107.804444-53.902222h48.213334L4.124587 448.142222c0 4.266667-1.137778 8.533333-1.564445 12.8L170.666809 377.315556zM283.591253 260.124444l216.035556-108.088888h-24.177778l-197.688889 98.844444-21.475555 10.808889v19.911111h104.817777l43.235556-21.475556 143.502222-71.822222v-36.266666l-215.893333 108.088888h-48.355556z" fill="#FFFFFF" p-id="28460"></path><path d="M191.431253 346.453333v129.706667H256.000142v-129.706667h291.555556V281.6H256.000142v-129.564444h-64.568889v129.564444H54.755698a520.675556 520.675556 0 0 0-27.306667 64.853333h163.982222z" fill="#FD001B" p-id="28461"></path><path d="M115.911253 260.124444l-38.257777-19.2q-5.688889 9.102222-11.093334 18.773334h0.853334zM283.591253 260.124444h48.355556l215.893333-108.088888h-48.213333l-216.035556 108.088888zM331.946809 368.071111l215.893333 107.946667 0.142222 0.142222v-24.177778l-0.142222-0.142222-167.537778-83.768889h-48.355555zM115.911253 368.071111L8.106809 421.973333c-1.564444 8.675556-2.844444 17.351111-3.982222 26.168889l160-80.071111z" fill="#FD001B" p-id="28462"></path></svg>