<?xml version="1.0" standalone="no"?><!DOCTYPE svg PUBLIC "-//W3C//DTD SVG 1.1//EN" "http://www.w3.org/Graphics/SVG/1.1/DTD/svg11.dtd"><svg t="1736412380406" class="icon" viewBox="0 0 1024 1024" version="1.1" xmlns="http://www.w3.org/2000/svg" p-id="21487" xmlns:xlink="http://www.w3.org/1999/xlink" width="48" height="48"><path d="M512 1024c282.7776 0 512-229.2224 512-512C1024 229.2224 794.7776 0 512 0 229.2224 0 0 229.2224 0 512c0 282.7776 229.2224 512 512 512z" fill="#009B3A" p-id="21488"></path><path d="M85.333333 512l426.666667 273.066667 426.666667-273.066667-426.666667-273.066667L85.333333 512z" fill="#FEDF00" p-id="21489"></path><path d="M512 692.906667c99.908267 0 180.906667-80.9984 180.906667-180.906667 0-99.908267-80.9984-180.906667-180.906667-180.906667-99.908267 0-180.906667 80.9984-180.906667 180.906667 0 99.908267 80.9984 180.906667 180.906667 180.906667z" fill="#002776" p-id="21490"></path><path d="M348.16 440.32c-3.413333 10.24-6.826667 17.066667-10.24 27.306667 126.293333-20.48 252.586667 13.653333 348.16 98.986666 3.413333-10.24 3.413333-20.48 6.826667-27.306666-98.986667-81.92-221.866667-116.053333-344.746667-98.986667z" fill="#FFFFFF" p-id="21491"></path></svg>