<?xml version="1.0" standalone="no"?><!DOCTYPE svg PUBLIC "-//W3C//DTD SVG 1.1//EN" "http://www.w3.org/Graphics/SVG/1.1/DTD/svg11.dtd"><svg t="1736412311591" class="icon" viewBox="0 0 1024 1024" version="1.1" xmlns="http://www.w3.org/2000/svg" p-id="12069" xmlns:xlink="http://www.w3.org/1999/xlink" width="48" height="48"><path d="M0.000048 0h1023.996807v1023.996807H0.000048z" fill="#B90005" p-id="12070"></path><path d="M253.345719 261.647328v147.804326h147.843029V261.647328z m103.093421 104.23514a24.672757 24.672757 0 0 1-10.73023 8.204901 44.140045 44.140045 0 0 1-16.758124 2.8543H295.589349v-82.948841h31.174754c9.220838 0 16.254993 1.838362 21.2863 5.524763 5.031307 3.6864 7.546961 9.056353 7.546961 15.926022a17.996599 17.996599 0 0 1-2.680139 10.217424 18.867402 18.867402 0 0 1-8.050092 6.86967c4.528177 1.344907 8.388737 4.025046 11.233361 7.711445 2.680139 3.676725 4.025046 8.204901 3.860561 12.897563 0.32897 4.528177-1.006261 9.056353-3.521915 12.742753z m-21.121815-40.560077c2.341493-2.002847 3.6864-4.857147 3.521915-8.03074 0-6.540699-4.528177-9.898129-13.410369-9.89813h-12.742753v20.609009h12.742753c4.189531 0.174161 7.546961-0.832101 9.888454-2.680139z m-7.875931 15.926023H312.521633v22.447371h14.7456c5.031307 0 8.891868-0.996586 11.572007-2.844624a9.249865 9.249865 0 0 0 4.025046-8.214577c0-7.70177-5.205468-11.562331-15.422892-11.38817z m110.630706-79.601086v147.804326h147.852704V261.647328z m103.093421 104.23514a24.672757 24.672757 0 0 1-10.730231 8.204901 44.449664 44.449664 0 0 1-16.932284 2.8543h-33.187276v-82.948841h31.184429c9.220838 0 16.254993 1.838362 21.450785 5.524763 5.031307 3.6864 7.546961 9.056353 7.546961 15.926022a17.996599 17.996599 0 0 1-2.680139 10.217424 18.867402 18.867402 0 0 1-8.050091 6.86967c4.528177 1.344907 8.379062 4.025046 11.223685 7.711445 2.689814 3.676725 4.034721 8.204901 3.870236 12.897563a21.383056 21.383056 0 0 1-3.696075 12.742753z m-21.121815-40.560077c2.351169-2.002847 3.6864-4.857147 3.521915-8.03074 0-6.540699-4.528177-9.898129-13.410369-9.89813H497.422174v20.609009h12.742753c4.189531 0.174161 7.546961-0.832101 9.888454-2.680139z m-7.875931 15.926023h-14.919761v22.447371h14.755276c5.031307 0 8.882192-0.996586 11.562331-2.844624a9.249865 9.249865 0 0 0 4.025046-8.214577c0-7.70177-5.031307-11.562331-15.422892-11.38817z m110.640381 68.20324h147.843028V261.647328H622.817832z m106.10253-37.705778a51.232254 51.232254 0 0 1-11.900977 4.518501 59.11786 59.11786 0 0 1-14.24247 1.683553 50.303397 50.303397 0 0 1-17.938545-2.854299 39.244197 39.244197 0 0 1-13.574854-8.379062c-3.696076-3.850885-6.705184-8.379062-8.388738-13.400693a53.438288 53.438288 0 0 1-3.009108-17.764385 47.120127 47.120127 0 0 1 3.009108-17.425739c2.012523-5.031307 4.866822-9.549808 8.717708-13.410369 4.025046-3.850885 8.717707-6.695509 13.739339-8.543547a54.473577 54.473577 0 0 1 17.948221-3.018784c4.354016 0 8.708032 0.503131 13.071723 1.344907a44.21745 44.21745 0 0 1 11.397846 4.189531v16.254992a39.253872 39.253872 0 0 0-10.391585-4.866822 40.86002 40.86002 0 0 0-11.900976-1.673877 31.406968 31.406968 0 0 0-14.581116 3.192945 21.2863 21.2863 0 0 0-9.220838 9.211162 29.675037 29.675037 0 0 0-3.192945 14.745601c-0.164485 5.031307 0.841776 10.217424 3.192945 14.7456 2.012523 4.025046 5.195792 7.208315 9.046678 9.220838 4.528177 2.177008 9.385323 3.347754 14.41663 3.18327 8.388737 0 16.603314-2.351169 23.801954-6.705185zM291.457872 593.723282q-6.134325-21.837809-12.094489-43.665942-5.766652-21.828133-11.359144-43.665941-5.418331 21.837809-11.184983 43.665941-5.776328 21.828133-11.910652 43.665942h-29.413796q-9.191811-31.581129-17.677305-63.868576-8.475818-32.297122-16.06148-65.136077h30.313626q4.508825 25.079131 9.559484 50.158263 5.060334 25.079131 10.643149 49.248757 12.094489-47.081425 22.921475-93.998365h27.062628q5.418331 23.095635 11.001147 46.191271 5.776328 22.911799 11.736491 45.823598 5.408655-23.811629 10.459314-48.348927 5.050658-24.537298 9.385323-49.074597h29.771793q-7.585663 32.838955-16.061481 65.136077-8.475818 32.287447-17.677304 63.8589zM421.343003 462.009463q14.610142 0 26.346634 4.692662 11.900977 4.692662 20.202634 13.536152 8.485493 8.659654 12.994319 21.102463 4.508825 12.268649 4.508825 27.788297 0 15.335812-4.508825 27.788297-4.508825 12.44281-12.994319 21.2863-8.291981 8.84349-20.202634 13.536152-11.726816 4.682986-26.346634 4.682986-14.610142 0-26.511119-4.682986-11.736492-4.692662-20.221984-13.536152-8.291981-8.84349-12.800807-21.2863-4.508825-12.452485-4.508825-27.788297 0-15.519648 4.508825-27.788297 4.508825-12.44281 12.810482-21.102463 8.475818-8.84349 20.202634-13.536152 11.910652-4.692662 26.520794-4.692662z m0 110.243683q11.010822 0 18.944807-5.050659 7.933985-5.234495 12.094489-14.803654 4.150828-9.559484 4.150828-23.269796 0-13.710312-4.160504-23.279471-4.141153-9.559484-12.084813-14.610143-7.933985-5.050658-18.944807-5.050658-11.001147 0-18.944807 5.050658-7.933985 5.050658-12.084812 14.610143-4.150828 9.569159-4.150829 23.279471 0 13.710312 4.160504 23.269796 4.141153 9.569159 12.075137 14.803654 7.933985 5.050658 18.944807 5.050659zM528.142175 546.806342v46.91694H500.711875V464.718629h47.091101q25.446804 0 38.97328 10.64315 13.710312 10.64315 13.710312 30.487787 0 12.810482-6.134325 21.837808-5.950488 9.017651-17.135471 13.894149 8.117821 12.810482 16.061481 25.795125 7.933985 12.810482 15.867969 26.346634h-31.92945q-12.994319-23.821305-26.888467-46.91694h-2.709165z m0-21.828133h18.035302q12.810482 0 19.48664-4.508826 6.676158-4.692662 6.676157-14.610142 0-9.927156-6.676157-14.619818-6.492321-4.692662-19.302804-4.692661h-18.219138zM623.349989 464.718629h27.788297v104.825351h61.169086v24.179302h-88.957383zM728.523662 464.718629h49.248757q20.38647 0 34.832127 7.575987 14.610142 7.575988 22.18613 22.01197 7.575988 14.252145 7.575988 34.638615t-7.759824 35.006288q-7.575988 14.435982-22.011969 22.195805-14.435982 7.575988-34.996612 7.575988h-49.074597zM776.14692 569.892301q18.044977 0 27.614136-10.459313 9.733644-10.64315 9.733645-30.497463 0-19.660801-9.559484-29.945953-9.385323-10.468989-27.604461-10.46899h-20.028473v81.371719zM197.401453 762.272074q-10.64315 0-21.112139-2.351168-10.285153-2.341493-19.834961-7.392152v-24.90497q19.293128 11.726816 40.9471 11.726816 12.268649 0 18.577134-4.150829 6.501997-4.141153 6.501998-11.54298 0-5.592492-3.250999-8.659654-3.067162-3.250999-8.291981-5.050658-5.234495-1.983496-11.726816-3.608995-10.64315-2.525329-18.770647-5.776328-8.117821-3.250999-13.710312-7.575988-5.592492-4.508825-8.475818-10.64315-2.893002-6.318161-2.893001-14.977814 0-12.268649 6.134324-21.11214 6.318161-8.833814 17.68698-13.526476 11.359144-4.876498 27.062628-4.876497 10.285153 0 20.202634 2.351168 9.927156 2.341493 17.86114 6.308485v24.537299q-7.933985-4.866822-18.035301-7.575988-9.927156-2.709165-20.028473-2.709165-11.010822 0-17.145147 3.792831-5.950488 3.792832-5.950488 10.826987 0 5.050658 2.883326 8.11782 2.893002 2.883326 8.127496 4.876498 5.408655 1.79966 12.626646 3.59932 9.191811 2.351169 17.135472 5.234495 7.933985 2.709165 13.894148 7.034154 6.134325 4.334665 9.385323 11.010822 3.425159 6.676158 3.425159 16.419478 0 12.810482-6.318161 22.011969-6.308485 9.017651-18.219137 13.894149-11.900977 4.692662-28.688127 4.692661zM263.824384 630.558256h88.773546v23.095635h-60.985249v27.962458h54.125255v23.095635h-54.125255v31.75529h64.410409v23.095635h-92.198706zM397.328187 712.655644v46.907265H369.897887V630.558256h47.0911q25.446804 0 38.97328 10.64315 13.710312 10.64315 13.710313 30.497462 0 12.810482-6.134325 21.828133-5.950488 9.017651-17.135471 13.894149 8.117821 12.810482 16.061481 25.795125 7.933985 12.810482 15.867969 26.346634h-31.92945q-12.994319-23.821305-26.888467-46.907265h-2.709166z m0-21.837808h18.035301q12.810482 0 19.48664-4.508825 6.676158-4.692662 6.676158-14.610143 0-9.927156-6.676158-14.610142-6.492321-4.702337-19.302804-4.702337h-18.219137zM600.892943 630.558256q-11.726816 32.297122-24.169626 64.594245-12.268649 32.297122-25.079132 64.410408h-29.955629q-12.810482-32.122962-25.253292-64.410408-12.278325-32.297122-23.995465-64.594245h30.478111q8.311333 25.253292 16.78715 50.342099 8.475818 25.079131 17.319308 50.158263 8.84349-25.079131 17.319307-50.158263 8.485493-25.079131 16.78715-50.342099zM612.851973 630.558256h27.778622v129.004653H612.851973zM720.928323 762.272074q-15.335812 0-27.604461-4.518501-12.268649-4.682986-20.754142-13.352315-8.475818-8.659654-12.984643-21.102464-4.508825-12.636322-4.508825-28.33013 0-15.335812 4.682986-27.60446 4.692662-12.452485 13.536151-21.2863 8.84349-8.84349 21.11214-13.536152 12.44281-4.692662 27.778621-4.692661 10.64315 0 20.028473 2.351168 9.569159 2.157657 17.68698 6.492322v25.620964q-7.401827-5.050658-16.061481-7.575987-8.659654-2.709165-18.219137-2.709166-13.178155 0-22.553803 5.050659-9.201487 5.050658-14.252145 14.610142-4.876498 9.569159-4.876498 23.279471 0 13.710312 4.692662 23.453633 4.866822 9.569159 13.894148 14.610142 9.191811 5.060334 22.18613 5.060334 19.854312 0 36.631787-10.64315v25.079131q-7.933985 4.508825-18.402974 7.034155-10.468989 2.709165-22.011969 2.709165zM776.369459 630.558256h88.773546v23.095635h-60.985249v27.962458h54.125255v23.095635h-54.125255v31.75529h64.410408v23.095635H776.369459z" fill="#FFFFFF" p-id="12071"></path></svg>