<?xml version="1.0" standalone="no"?><!DOCTYPE svg PUBLIC "-//W3C//DTD SVG 1.1//EN" "http://www.w3.org/Graphics/SVG/1.1/DTD/svg11.dtd"><svg t="1736412365813" class="icon" viewBox="0 0 1024 1024" version="1.1" xmlns="http://www.w3.org/2000/svg" p-id="19733" xmlns:xlink="http://www.w3.org/1999/xlink" width="48" height="48"><path d="M0 0m128 0l768 0q128 0 128 128l0 768q0 128-128 128l-768 0q-128 0-128-128l0-768q0-128 128-128Z" fill="#000000" opacity=".01" p-id="19734"></path><path d="M256 0h640a128 128 0 0 1 128 128v211.2H0V256 128a128 128 0 0 1 128-128h128z" fill="#2A343C" p-id="19735"></path><path d="M0 339.2h1024v345.6H0V339.2z" fill="#FF513A" p-id="19736"></path><path d="M1024 684.8V896a128 128 0 0 1-128 128H128a128 128 0 0 1-128-128v-211.2h1024z" fill="#FFBB53" p-id="19737"></path></svg>