<?xml version="1.0" standalone="no"?><!DOCTYPE svg PUBLIC "-//W3C//DTD SVG 1.1//EN" "http://www.w3.org/Graphics/SVG/1.1/DTD/svg11.dtd"><svg t="1736412412650" class="icon" viewBox="0 0 1024 1024" version="1.1" xmlns="http://www.w3.org/2000/svg" p-id="23676" xmlns:xlink="http://www.w3.org/1999/xlink" width="48" height="48"><path d="M823.272 344.192s-42.326-59.99-57.6-77.483c-16.043-18.346-21.12-60.032-26.198-70.016-5.077-10.026-26.24-65.024-26.24-65.024l7.638-30.805s-7.638-33.365-18.603-30.848c-10.155 2.475-37.248 2.475-37.248 2.475l-49.92-2.475-60.075-13.355L521.192 80l-33.835-20.821-44.8-13.355-5.973-35.84S407.869 0 389.266 0c-18.602 0-78.677 7.51-78.677 7.51l-42.283 18.346s-28.8-2.56-39.808 7.424c-10.154 10.027-37.248 44.203-37.248 44.203s-13.525 33.28-26.197 39.168c-13.568 5.034-52.48 59.989-52.48 59.989s0 72.533-5.077 88.32c-5.078 15.872 10.154 75.05 10.154 75.05l47.36 56.662s28.8 44.16 39.808 44.16c10.112 0 16.043-4.992 37.206-4.992s44.8-2.517 44.8-2.517 26.282-18.347 37.248-20.822c10.154-2.517 37.248-2.517 37.248 7.51 0 9.984 28.757 20.821 28.757 20.821l31.317 44.16s16.043 30.848 16.043 44.203c0 13.312 18.645 56.661 16.085 67.498-2.56 9.984 23.68 98.347 10.155 106.667-13.525 7.51-5.077 28.33-2.56 46.677 2.56 18.347 21.163 41.686 21.163 56.662 0 15.018 16.085 75.008 16.085 75.008s16.085 15.829 10.155 28.33c-5.12 13.355 31.317 75.008 31.317 75.008l28.757 36.694s-7.637 7.466 16.043-5.035c23.723-13.312 47.36-44.16 47.36-44.16l37.248-30.805s16.085-28.374 18.645-41.686c2.518-13.354 16.043-39.168 16.043-39.168s23.68-10.026 23.68-20.864c0-9.984-5.077-67.498 10.155-75.008 16.085-7.466 21.162-13.312 28.8-36.65 7.594-23.339 16.042-56.662 16.042-72.534 0-15.786-10.154-74.965 0-90.794 10.155-15.872 47.36-67.542 66.006-80.854 18.602-13.354 44.8-41.685 52.48-65.024 7.594-23.338 16.042-77.482 16.042-77.482s-42.282 2.474-52.48 9.984c-11.818 8.32-41.386-7.51-41.386-7.51z m13.482 396.715s5.12 28.33 5.12 41.685c0 13.312-18.645 33.323-18.645 33.323s10.155 41.685 21.163 51.669c0 0 37.205-39.168 39.765-49.152 2.56-10.027 0-39.168 10.155-49.195 10.154-9.984 10.154-83.328 10.154-83.328l-39.765 25.814-27.947 29.184z" fill="#FF99C3" p-id="23677"></path></svg>