<?xml version="1.0" standalone="no"?><!DOCTYPE svg PUBLIC "-//W3C//DTD SVG 1.1//EN" "http://www.w3.org/Graphics/SVG/1.1/DTD/svg11.dtd"><svg t="1736412450026" class="icon" viewBox="0 0 1024 1024" version="1.1" xmlns="http://www.w3.org/2000/svg" p-id="26414" xmlns:xlink="http://www.w3.org/1999/xlink" width="48" height="48"><path d="M512 1023.97952A512.235515 512.235515 0 0 1 28.528069 680.946381h966.933622A512.215036 512.215036 0 0 1 512 1023.97952z" fill="#00853E" p-id="26415"></path><path d="M28.958141 682.185396a514.529229 514.529229 0 0 1-0.409592-339.193216h966.892662a514.365393 514.365393 0 0 1-0.409592 339.193216z" fill="#BE1724" p-id="26416"></path><path d="M28.548549 343.033139a512.204796 512.204796 0 0 1 966.892662 0z" fill="#231815" p-id="26417"></path><path d="M38.051079 706.064599a506.50123 506.50123 0 0 1-17.602208-50.277395h983.02034a506.50123 506.50123 0 0 1-17.602208 50.277395zM20.868703 366.830423a506.531949 506.531949 0 0 1 17.735325-50.236435h946.761225a509.091898 509.091898 0 0 1 17.735325 50.236435z" fill="#F0F0F0" p-id="26418"></path><path d="M645.926281 317.843243c18.841223-5.027739 30.156197-22.619708 40.201436-40.201436 7.536489-11.263775 47.737925-119.355053 47.737926-119.355053s-77.894122 87.949601-84.181357 99.254335c-10.055479 17.591968-21.360213 35.173697-16.383672 54.02516L505.211016 525.158137 377.059979 311.576488c5.027739-18.841223-5.027739-36.433191-16.383673-54.025159-7.536489-11.263775-84.181356-99.254335-84.181356-99.254335s40.201436 108.050319 47.737925 119.355053c10.055479 17.591968 21.360213 35.173697 40.201436 40.201436l133.209496 219.858643-195.99992 321.631967 12.564229 6.276995 189.712686-314.095479 190.97218 315.385693 12.564229-6.276995-194.740425-322.891462 133.178776-219.868882z" fill="#F0F0F0" p-id="26419"></path><path d="M645.916042 317.853483c20.100718-3.768245 30.156197-22.619708 41.46093-40.201436 7.536489-12.564229 47.737925-119.355053 47.737926-119.355053l-1.259495-1.259495s-77.894122 87.949601-84.181356 99.254335c-8.795984 15.072979-17.591968 28.896702-17.591969 43.969681l1.259495 10.055479h1.259495l-130.659787 212.332393-128.151037-212.332393h1.259495l1.259495-10.055479a88.144157 88.144157 0 0 0-17.591968-43.969681c-7.536489-11.263775-84.181356-99.254335-84.181357-99.254335l-1.259495 1.259495s40.201436 108.050319 47.737926 119.355053c10.055479 17.591968 21.360213 35.173697 41.46093 40.201436v-1.249255l131.919282 219.868883-195.97944 322.840263 12.564228 7.536489 189.712686-315.385692 189.712686 315.385692 12.564229-7.536489-190.972181-321.631968 131.919282-219.868882-134.428032 219.909842 194.740425 321.631967-11.263774 6.276994-191.02338-316.583748-189.712686 316.604228-11.263774-6.276994 194.740425-321.631968-133.219736-221.138617c-18.841223-5.027739-28.896702-22.619708-40.201436-40.201436-7.536489-11.263775-47.737925-119.355053-47.737925-119.355053h-1.259495s77.894122 87.949601 84.181357 99.254335a88.144157 88.144157 0 0 1 17.591968 43.969681l-1.259495 10.055478 129.410532 214.841144 129.410532-214.841144-2.50875-10.055478c0-15.072979 8.795984-28.896702 17.591968-43.969681 7.536489-11.263775 84.181356-99.254335 84.181356-99.254335s-40.201436 108.050319-47.737925 119.355053c-11.263775 17.591968-21.360213 35.173697-40.201436 41.460931z" fill="#231815" p-id="26420"></path><path d="M639.639047 349.269175c-21.360213-54.025159-91.717846-163.324734-134.428031-163.324734S392.132957 293.99476 370.782984 349.269175a443.936081 443.936081 0 0 1 35.173697 163.324733 454.923382 454.923382 0 0 1-35.173697 163.324734c21.360213 54.025159 91.717846 163.324734 134.428032 163.324733s113.078058-108.050319 134.428031-163.324733a443.936081 443.936081 0 0 1-35.173696-163.324734c-1.259495-55.274415 13.854443-109.299574 35.173696-163.324733z" fill="#BE1724" p-id="26421"></path><path d="M639.639047 349.269175a429.149817 429.149817 0 0 0 0 325.400212 429.160057 429.160057 0 0 0 0-325.400212z m-270.125797 0a429.149817 429.149817 0 0 0 0 325.400212 417.783644 417.783644 0 0 0 0-325.400212z" fill="#231815" p-id="26422"></path><path d="M503.941281 471.143217c37.692686 0 37.692686 81.662367 0 81.662367s-37.692686-81.662367 0-81.662367z" fill="#FFFFFF" p-id="26423"></path><path d="M511.49825 551.535849a352.248955 352.248955 0 0 1 0 285.198776z m-13.823723-79.153617a352.248955 352.248955 0 0 1 0-285.198776z m0 79.153617a352.248955 352.248955 0 0 0 0 285.198776z m13.823723-79.153617a352.248955 352.248955 0 0 0 0-285.198776z" fill="#FFFFFF" p-id="26424"></path></svg>