<?xml version="1.0" standalone="no"?><!DOCTYPE svg PUBLIC "-//W3C//DTD SVG 1.1//EN" "http://www.w3.org/Graphics/SVG/1.1/DTD/svg11.dtd"><svg t="1736412429439" class="icon" viewBox="0 0 1536 1024" version="1.1" xmlns="http://www.w3.org/2000/svg" p-id="24959" xmlns:xlink="http://www.w3.org/1999/xlink" width="72" height="48"><path d="M0 0h1536v1024H0z" fill="#FFFFFF" p-id="24960"></path><path d="M0 0h252.48l550.848 371.84H1536v281.088H803.328L252.48 1024H0z" fill="#007D49" p-id="24961"></path><path d="M1536 0H273.856l529.472 371.84H1536z" fill="#F41922" p-id="24962"></path><path d="M273.856 1024l529.472-371.072H1536V1024z" fill="#00229B" p-id="24963"></path><path d="M0 123.04L583.808 512 0 900.608z" fill="#FFB200" p-id="24964"></path><path d="M0 205.024L461.056 512 0 819.072z" fill="#000000" p-id="24965"></path><path d="M1536 614.368v68.064H820.48L304.448 1023.936H181.088L800 614.4h736zM305.216-0.032l515.2 341.024L1536 341.024v68.064H800L181.92 0h123.296z" fill="#FFFFFF" p-id="24966"></path></svg>