<?xml version="1.0" standalone="no"?><!DOCTYPE svg PUBLIC "-//W3C//DTD SVG 1.1//EN" "http://www.w3.org/Graphics/SVG/1.1/DTD/svg11.dtd"><svg t="1736413265377" class="icon" viewBox="0 0 1024 1024" version="1.1" xmlns="http://www.w3.org/2000/svg" p-id="11710" xmlns:xlink="http://www.w3.org/1999/xlink" width="48" height="48"><path d="M896.620222 569.798574c15.487499 87.758209-11.336078 171.956221-92.500854 290.638016l-7.595943 117.023798c-1.722261 26.797871-25.21699 46.501054-53.480068 46.501054H415.865126c-20.0245 0-38.236771-9.176825-47.503565-26.039562l-232.376744-421.311377c-19.998795-32.247414-20.949895-68.427754-2.519129-99.505573 19.279044-32.517321 57.01456-53.544332 96.20243-53.531479 36.360277 0 68.607692 17.788131 88.683603 48.827392l2.339191 3.585903V142.44643c0-11.49031-0.359875-60.44623 3.033236-70.587006C337.348006 31.142083 370.353729 1.28527 418.949773 1.28527c49.328647 0 95.881113 28.867155 108.913746 70.574154 3.007531 9.613817 3.303143 51.937745 3.303143 62.734009v215.488302h1.722261c38.442414 0 75.098303 16.078723 99.659806 42.95371 8.379958-1.47806 17.698162-0.912541 27.659002-0.912541 41.385681 0 77.37323 17.40255 102.256049 49.20012 35.023597 3.804398 115.712823 24.034542 134.156442 128.47555z m0 0" fill="#CE883D" p-id="11711"></path><path d="M853.769333 575.620845c13.495331 76.357867-9.755196 150.569334-90.971383 267.451753-0.848278 1.221006-1.362386 1.593734-1.452354 3.071794l-8.20002 124.594036c-0.269907 4.421327-4.151421 3.714429-8.81695 3.714429H417.150395c-3.303143 0-6.426348 2.454865-7.955818-0.321318L176.110934 554.658098c-29.561201-46.359675 11.888744-89.788935 54.431167-89.788934 18.8292 0 37.362787 8.508485 50.446832 29.008535l28.867156 43.506376c6.169294 8.996887 13.726679 13.032634 23.044884 13.032634 15.307561 0 26.69505-10.924792 26.69505-28.597249V114.993072c0-39.085049 33.095692-66.654082 63.942162-66.654082 30.859323 0 59.867858 27.569033 59.867859 66.654082V392.00723c0 4.76835 7.583091 8.418516 12.261472 8.418516 0.886836 0 5.256753-0.128527 6.156441-0.398434 8.598454-2.634803 21.348328-5.539512 35.589115-5.539512 24.484386 0 53.492921 8.585601 73.903003 41.822673 1.722261 2.81474 4.806908 4.472738 8.05864 4.472738 1.066774 0 2.133548-0.179938 3.136058-0.52696 8.20002-2.866151 22.517923-6.850487 38.956522-6.850487 22.864946 0 49.778492 7.711618 69.854403 36.835827 4.806908 6.953309 12.91696 11.15614 21.631087 11.631689 27.748971 1.503765 86.768551 14.202229 100.816548 93.747565z m0 0" fill="#F8B360" p-id="11712"></path></svg>